<svg width="33" height="30" viewBox="0 0 33 30" fill="none" xmlns="http://www.w3.org/2000/svg">
<path d="M1.12757 24.0165L6.70209 18.9415L10.9899 17.3288C9.56218 15.4804 8.7973 13.2753 8.80005 11.0157C8.80005 4.94162 14.2281 0 20.9 0C27.572 0 33 4.94162 33 11.0157C33 17.0898 27.572 22.0315 20.9 22.0315C18.3964 22.0341 15.9542 21.3257 13.9137 20.005L12.1469 23.8981L6.57256 28.9733C6.21506 29.2988 5.79064 29.557 5.32353 29.7332C4.85643 29.9093 4.35579 30 3.85019 30C3.34459 30 2.84394 29.9094 2.37682 29.7332C1.9097 29.5571 1.48527 29.2989 1.12774 28.9735C0.770222 28.648 0.486614 28.2616 0.293114 27.8364C0.099617 27.4111 1.52588e-05 26.9553 0 26.495C-1.52588e-05 26.0347 0.0995522 25.579 0.293022 25.1537C0.486492 24.7284 0.770069 24.342 1.12757 24.0165ZM30.8 11.0157C30.8 6.04613 26.3588 2.00286 20.9 2.00286C15.4413 2.00286 11 6.04613 11 11.0157C11 15.9853 15.4413 20.0286 20.9 20.0286C26.3588 20.0286 30.8 15.9853 30.8 11.0157ZM2.68331 27.5571C2.993 27.8384 3.4126 27.9964 3.85007 27.9964C4.28753 27.9964 4.70713 27.8384 5.01682 27.5571L10.2811 22.7645L11.9238 19.1447L7.94756 20.6402L2.68318 25.4328C2.37423 25.7147 2.20074 26.0967 2.20077 26.495C2.2008 26.8932 2.37433 27.2752 2.68331 27.5571Z" fill="#9F400C"/>
</svg>
